# xmcd CD database file
#
# Track frame offsets:
#	150
#	15577
#	29785
#	46064
#	65774
#	85576
#	104406
#	121342
#	137286
#	156022
#	172115
#	188435
#
# Disc length: 2692 seconds
#
# Revision: 0
# Processed by: cddbd v1.5.1PL2 Copyright (c) Steve Scherf et al.
# Submitted via: CDex 1.70beta1
#
DISCID=940a820c
DTITLE=Wolfgang Petry - Meine Lieblingslieder
DYEAR=2006
DGENRE=Schlager
TTITLE0=Dein ist mein ganzes Herz
TTITLE1=Marmor, Stein und Eisen bricht
TTITLE2=1000 und 1 Nacht (Zoom)
TTITLE3=13 Tage
TTITLE4=Horizont
TTITLE5=Du entschuldige, ich kenn' di
TTITLE6=Langer Samstag in d'r City
TTITLE7=Ich moecht' so gern Dave Dudley hoer'n
TTITLE8=Ohne dich
TTITLE9=Du hast ihre Augen
TTITLE10=Kribbeln im Bauch
TTITLE11=Fuer Gabi tu' ich alles
EXTD=YEAR: 2006
EXTT0=
EXTT1=
EXTT2=
EXTT3=
EXTT4=
EXTT5=
EXTT6=
EXTT7=
EXTT8=
EXTT9=
EXTT10=
EXTT11=
PLAYORDER=
